<mxfile host="app.diagrams.net" modified="2024-06-13T09:27:18.525Z" agent="Mozilla/5.0 (Windows NT 10.0; Win64; x64) AppleWebKit/537.36 (KHTML, like Gecko) Chrome/125.0.0.0 Safari/537.36" version="24.5.4" etag="heRl309vxVWVmPIwLFu5" type="github">
  <diagram name="Page-1" id="JFuu4jH_Q31Bu3yGtJpa">
    <mxGraphModel>
      <root>
        <mxCell id="0" />
        <mxCell id="1" parent="0" />
      </root>
    </mxGraphModel>
  </diagram>
</mxfile>
